<svg width="1348" height="729" viewBox="0 0 1348 729" fill="none" xmlns="http://www.w3.org/2000/svg">
<path opacity="0.15" d="M20.4044 536H7.82546V548.579H20.4044V536ZM276.989 536V548.579H289.568V536H276.989ZM276.989 467.135H289.568V454.556H276.989V467.135ZM116.305 467.135H103.726V479.714H116.305V467.135ZM181.599 402.862L175.585 391.813L175.471 391.875L175.358 391.94L181.599 402.862ZM25.5054 301.86H12.9265V314.439H25.5054V301.86ZM106.103 301.86V314.439H118.682V301.86H106.103ZM195.372 285.537L182.798 285.161L182.798 285.179L182.797 285.197L195.372 285.537ZM112.734 363.073L106.493 352.152L106.47 352.165L106.446 352.179L112.734 363.073ZM7.82546 518.146V536H32.9833V518.146H7.82546ZM20.4044 548.579H276.989V523.421H20.4044V548.579ZM289.568 536V467.135H264.41V536H289.568ZM276.989 454.556H116.305V479.714H276.989V454.556ZM128.884 467.135V465.605H103.726V467.135H128.884ZM128.884 465.605C128.884 461.087 130.499 455.583 139.014 447.23C147.874 438.538 163.012 427.971 187.84 413.783L175.358 391.94C150.195 406.319 132.686 418.196 121.396 429.271C109.762 440.684 103.726 452.269 103.726 465.605H128.884ZM187.612 413.91C226.602 392.688 291.608 360.872 291.608 279.925H266.451C266.451 343.85 217.193 369.166 175.585 391.813L187.612 413.91ZM291.608 279.925C291.608 245.782 279.753 215.717 255.455 194.346C231.341 173.138 196.419 161.754 152.523 161.754V186.912C192.284 186.912 220.615 197.208 238.84 213.237C256.881 229.104 266.451 251.835 266.451 279.925H291.608ZM152.523 161.754C104.134 161.754 68.7145 175.934 45.4715 200.346C22.3571 224.624 12.9265 257.302 12.9265 291.148H38.0843C38.0843 261.74 46.2525 236.011 63.6918 217.694C81.0025 199.512 109.091 186.912 152.523 186.912V161.754ZM12.9265 291.148V301.86H38.0843V291.148H12.9265ZM25.5054 314.439H106.103V289.281H25.5054V314.439ZM118.682 301.86V294.718H93.5238V301.86H118.682ZM118.682 294.718C118.682 278.406 123.444 269.833 128.621 265.162C134.051 260.263 141.973 257.817 151.502 257.817V232.659C138.077 232.659 123.299 236.079 111.768 246.483C99.9836 257.116 93.5238 273.282 93.5238 294.718H118.682ZM151.502 257.817C159.713 257.817 168.003 259.261 173.781 263.072C178.559 266.222 183.193 271.956 182.798 285.161L207.945 285.912C208.571 264.94 200.452 250.524 187.631 242.069C175.811 234.275 161.656 232.659 151.502 232.659V257.817ZM182.797 285.197C182.421 299.109 176.214 308.675 163.4 318.549C149.582 329.197 130.845 338.236 106.493 352.152L118.975 373.995C141.043 361.384 163.114 350.53 178.756 338.477C195.4 325.651 207.302 309.712 207.946 285.876L182.797 285.197ZM106.446 352.179C67.1263 374.873 42.0149 398.943 26.9951 426.796C12.0063 454.592 7.82546 484.777 7.82546 518.146H32.9833C32.9833 486.732 36.9641 461.314 49.1386 438.737C61.2822 416.217 82.3356 395.142 119.022 373.968L106.446 352.179ZM483.527 553.68C520.325 553.68 560.078 541.844 590.611 510.468C621.185 479.048 640.977 429.62 640.977 357.462H615.82C615.82 425.073 597.354 467.465 572.581 492.923C547.767 518.423 515.084 528.522 483.527 528.522V553.68ZM640.977 357.462C640.977 285.788 621.171 236.499 590.611 205.094C560.098 173.737 520.358 161.754 483.527 161.754V186.912C515.051 186.912 547.747 197.119 572.581 222.639C597.367 248.111 615.82 290.386 615.82 357.462H640.977ZM483.527 161.754C446.936 161.754 407.21 173.746 376.645 205.083C346.024 236.479 326.078 285.765 326.078 357.462H351.235C351.235 290.41 369.802 248.131 394.655 222.649C419.565 197.11 452.275 186.912 483.527 186.912V161.754ZM326.078 357.462C326.078 429.644 346.011 479.069 376.645 510.478C407.229 541.835 446.969 553.68 483.527 553.68V528.522C452.241 528.522 419.546 518.432 394.655 492.912C369.816 467.445 351.235 425.05 351.235 357.462H326.078ZM430.812 357.462C430.812 330.767 433.99 304.606 442.631 285.572C446.886 276.2 452.223 269.098 458.642 264.348C464.914 259.707 472.897 256.797 483.527 256.797V231.639C467.887 231.639 454.574 236.061 443.677 244.125C432.928 252.08 425.225 263.055 419.724 275.172C408.854 299.114 405.655 329.576 405.655 357.462H430.812ZM483.527 256.797C494.001 256.797 501.876 259.69 508.077 264.318C514.432 269.06 519.732 276.16 523.965 285.544C532.557 304.593 535.732 330.77 535.732 357.462H560.89C560.89 329.573 557.69 299.127 546.898 275.2C541.438 263.095 533.794 252.118 523.124 244.155C512.3 236.078 499.069 231.639 483.527 231.639V256.797ZM535.732 357.462C535.732 384.688 532.551 410.98 523.965 430.018C519.737 439.39 514.445 446.452 508.102 451.162C501.907 455.761 494.027 458.637 483.527 458.637V483.795C499.044 483.795 512.269 479.402 523.099 471.36C533.781 463.429 541.433 452.478 546.898 440.362C557.695 416.422 560.89 385.838 560.89 357.462H535.732ZM483.527 458.637C472.872 458.637 464.882 455.744 458.618 451.132C452.21 446.414 446.881 439.35 442.631 429.99C433.995 410.967 430.812 384.691 430.812 357.462H405.655C405.655 385.835 408.848 416.436 419.724 440.39C425.23 452.518 432.941 463.467 443.701 471.39C454.605 479.419 467.912 483.795 483.527 483.795V458.637ZM686.893 536H674.315V548.579H686.893V536ZM943.478 536V548.579H956.057V536H943.478ZM943.478 467.135H956.057V454.556H943.478V467.135ZM782.794 467.135H770.215V479.714H782.794V467.135ZM848.088 402.862L842.074 391.813L841.96 391.875L841.847 391.94L848.088 402.862ZM691.995 301.86H679.416V314.439H691.995V301.86ZM772.592 301.86V314.439H785.171V301.86H772.592ZM861.861 285.537L849.288 285.161L849.287 285.179L849.287 285.197L861.861 285.537ZM779.223 363.073L772.982 352.152L772.959 352.165L772.935 352.179L779.223 363.073ZM674.315 518.146V536H699.472V518.146H674.315ZM686.893 548.579H943.478V523.421H686.893V548.579ZM956.057 536V467.135H930.899V536H956.057ZM943.478 454.556H782.794V479.714H943.478V454.556ZM795.373 467.135V465.605H770.215V467.135H795.373ZM795.373 465.605C795.373 461.087 796.988 455.583 805.503 447.23C814.363 438.538 829.501 427.971 854.329 413.783L841.847 391.94C816.684 406.319 799.175 418.196 787.885 429.271C776.251 440.684 770.215 452.269 770.215 465.605H795.373ZM854.102 413.91C893.091 392.688 958.098 360.872 958.098 279.925H932.94C932.94 343.85 883.682 369.166 842.074 391.813L854.102 413.91ZM958.098 279.925C958.098 245.782 946.243 215.717 921.944 194.346C897.83 173.138 862.908 161.754 819.012 161.754V186.912C858.773 186.912 887.104 197.208 905.33 213.237C923.37 229.104 932.94 251.835 932.94 279.925H958.098ZM819.012 161.754C770.623 161.754 735.204 175.934 711.961 200.346C688.846 224.624 679.416 257.302 679.416 291.148H704.573C704.573 261.74 712.742 236.011 730.181 217.694C747.492 199.512 775.58 186.912 819.012 186.912V161.754ZM679.416 291.148V301.86H704.573V291.148H679.416ZM691.995 314.439H772.592V289.281H691.995V314.439ZM785.171 301.86V294.718H760.013V301.86H785.171ZM785.171 294.718C785.171 278.406 789.933 269.833 795.11 265.162C800.54 260.263 808.462 257.817 817.992 257.817V232.659C804.566 232.659 789.788 236.079 778.257 246.483C766.473 257.116 760.013 273.282 760.013 294.718H785.171ZM817.992 257.817C826.202 257.817 834.492 259.261 840.27 263.072C845.048 266.222 849.682 271.956 849.288 285.161L874.434 285.912C875.06 264.94 866.941 250.524 854.12 242.069C842.3 234.275 828.145 232.659 817.992 232.659V257.817ZM849.287 285.197C848.911 299.109 842.703 308.675 829.889 318.549C816.072 329.197 797.334 338.236 772.982 352.152L785.464 373.995C807.532 361.384 829.603 350.53 845.245 338.477C861.889 325.651 873.791 309.712 874.435 285.876L849.287 285.197ZM772.935 352.179C733.615 374.873 708.504 398.943 693.484 426.796C678.495 454.592 674.315 484.777 674.315 518.146H699.472C699.472 486.732 703.453 461.314 715.628 438.737C727.771 416.217 748.825 395.142 785.511 373.968L772.935 352.179ZM1007.19 536H994.607V548.579H1007.19V536ZM1263.77 536V548.579H1276.35V536H1263.77ZM1263.77 467.135H1276.35V454.556H1263.77V467.135ZM1103.09 467.135H1090.51V479.714H1103.09V467.135ZM1168.38 402.862L1162.37 391.813L1162.25 391.875L1162.14 391.94L1168.38 402.862ZM1012.29 301.86H999.708V314.439H1012.29V301.86ZM1092.88 301.86V314.439H1105.46V301.86H1092.88ZM1182.15 285.537L1169.58 285.161L1169.58 285.179L1169.58 285.197L1182.15 285.537ZM1099.52 363.073L1093.27 352.152L1093.25 352.165L1093.23 352.179L1099.52 363.073ZM994.607 518.146V536H1019.77V518.146H994.607ZM1007.19 548.579H1263.77V523.421H1007.19V548.579ZM1276.35 536V467.135H1251.19V536H1276.35ZM1263.77 454.556H1103.09V479.714H1263.77V454.556ZM1115.67 467.135V465.605H1090.51V467.135H1115.67ZM1115.67 465.605C1115.67 461.087 1117.28 455.583 1125.8 447.23C1134.66 438.538 1149.79 427.971 1174.62 413.783L1162.14 391.94C1136.98 406.319 1119.47 418.196 1108.18 429.271C1096.54 440.684 1090.51 452.269 1090.51 465.605H1115.67ZM1174.39 413.91C1213.38 392.688 1278.39 360.872 1278.39 279.925H1253.23C1253.23 343.85 1203.97 369.166 1162.37 391.813L1174.39 413.91ZM1278.39 279.925C1278.39 245.782 1266.54 215.717 1242.24 194.346C1218.12 173.138 1183.2 161.754 1139.3 161.754V186.912C1179.07 186.912 1207.4 197.208 1225.62 213.237C1243.66 229.104 1253.23 251.835 1253.23 279.925H1278.39ZM1139.3 161.754C1090.92 161.754 1055.5 175.934 1032.25 200.346C1009.14 224.624 999.708 257.302 999.708 291.148H1024.87C1024.87 261.74 1033.03 236.011 1050.47 217.694C1067.78 199.512 1095.87 186.912 1139.3 186.912V161.754ZM999.708 291.148V301.86H1024.87V291.148H999.708ZM1012.29 314.439H1092.88V289.281H1012.29V314.439ZM1105.46 301.86V294.718H1080.31V301.86H1105.46ZM1105.46 294.718C1105.46 278.406 1110.23 269.833 1115.4 265.162C1120.83 260.263 1128.75 257.817 1138.28 257.817V232.659C1124.86 232.659 1110.08 236.079 1098.55 246.483C1086.77 257.116 1080.31 273.282 1080.31 294.718H1105.46ZM1138.28 257.817C1146.49 257.817 1154.78 259.261 1160.56 263.072C1165.34 266.222 1169.97 271.956 1169.58 285.161L1194.73 285.912C1195.35 264.94 1187.23 250.524 1174.41 242.069C1162.59 234.275 1148.44 232.659 1138.28 232.659V257.817ZM1169.58 285.197C1169.2 299.109 1163 308.675 1150.18 318.549C1136.36 329.197 1117.63 338.236 1093.27 352.152L1105.76 373.995C1127.82 361.384 1149.9 350.53 1165.54 338.477C1182.18 325.651 1194.08 309.712 1194.73 285.876L1169.58 285.197ZM1093.23 352.179C1053.91 374.873 1028.8 398.943 1013.78 426.796C998.788 454.592 994.607 484.777 994.607 518.146H1019.77C1019.77 486.732 1023.75 461.314 1035.92 438.737C1048.06 416.217 1069.12 395.142 1105.8 373.968L1093.23 352.179Z" fill="#777777"/>
</svg>
