<svg width="167" height="44" viewBox="0 0 167 44" fill="none" xmlns="http://www.w3.org/2000/svg">
    <path d="m7.65 8.5 15.76 14.59V9.56c1.81 0 3.59.01 5.39 0l-.07 25.85C23.46 30.59 18.27 25.9 13.07 21v13.21c-1.74-.02-3.68 0-5.42 0V8.5z" fill="#fff"/>
    <path d="m7.65 8.5 15.76 14.59V9.56c1.81 0 3.59.01 5.39 0l-.07 25.85C23.46 30.59 18.27 25.9 13.07 21v13.21c-1.74-.02-3.68 0-5.42 0V8.5z" fill="#1D1E20"/>
    <path d="M32.98 19.92c.68-6.34 6.56-11.65 13-11.23 4.11.18 7.72 2.65 10.05 5.92-3.21 1.59-6.36 3.3-9.52 4.99-.5-1.71-1.02-3.41-1.55-5.11-2.27 1.6-4.53 3.2-6.77 4.84 1.55 3.81 3.11 7.62 4.7 11.41 4.46-5.17 9.04-10.24 13.45-15.45 4.13 7.54-.36 18.64-9.33 19.55-8.24 1.42-15.54-6.97-14.03-14.92z" fill="#fff"/>
    <path d="M32.98 19.92c.68-6.34 6.56-11.65 13-11.23 4.11.18 7.72 2.65 10.05 5.92-3.21 1.59-6.36 3.3-9.52 4.99-.5-1.71-1.02-3.41-1.55-5.11-2.27 1.6-4.53 3.2-6.77 4.84 1.55 3.81 3.11 7.62 4.7 11.41 4.46-5.17 9.04-10.24 13.45-15.45 4.13 7.54-.36 18.64-9.33 19.55-8.24 1.42-15.54-6.97-14.03-14.92z" fill="#1D1E20"/>
    <path d="M117.429 8.43c5.43 4.68 10.39 9.88 15.84 14.53-.1-4.47-.04-8.93-.06-13.39 1.79 0 3.58-.01 5.37-.01-.01 8.63.07 17.26-.04 25.88-5.33-4.77-10.37-9.85-15.75-14.57-.06 4.45-.01 8.89-.04 13.33-1.78 0-3.55.01-5.33.02-.03-8.6-.05-17.2.01-25.79z" fill="#fff"/>
    <path d="M117.429 8.43c5.43 4.68 10.39 9.88 15.84 14.53-.1-4.47-.04-8.93-.06-13.39 1.79 0 3.58-.01 5.37-.01-.01 8.63.07 17.26-.04 25.88-5.33-4.77-10.37-9.85-15.75-14.57-.06 4.45-.01 8.89-.04 13.33-1.78 0-3.55.01-5.33.02-.03-8.6-.05-17.2.01-25.79z" fill="#1D1E20"/>
    <path d="M61.881 9.57c5.15.37 11.76-1.47 15.48 3.16 2.93 3.67.84 9.1-3.13 11.05 2.51 3.44 4.95 6.94 7.41 10.41l-6.64.03c-2.44-3.36-4.47-7.02-7.22-10.15-.34 3.37-.18 6.76-.22 10.15-1.9-.01-3.79-.01-5.69-.01.01-8.21-.01-16.43.01-24.64zm5.7 4.33c-.01 2.35-.01 4.69.02 7.04 2.49.15 6.19-.61 5.77-3.93-.06-3.04-3.64-2.95-5.79-3.11z" fill="#fff"/>
    <path d="M61.881 9.57c5.15.37 11.76-1.47 15.48 3.16 2.93 3.67.84 9.1-3.13 11.05 2.51 3.44 4.95 6.94 7.41 10.41l-6.64.03c-2.44-3.36-4.47-7.02-7.22-10.15-.34 3.37-.18 6.76-.22 10.15-1.9-.01-3.79-.01-5.69-.01.01-8.21-.01-16.43.01-24.64zm5.7 4.33c-.01 2.35-.01 4.69.02 7.04 2.49.15 6.19-.61 5.77-3.93-.06-3.04-3.64-2.95-5.79-3.11z" fill="#1D1E20"/>
    <path d="M80.31 9.57c2.05 0 4.1-.01 6.15-.03 1.94 4.49 3.9 8.96 5.79 13.46 1.98-4.46 3.84-8.97 5.83-13.42 1.91-.01 3.831 0 5.741 0-3.93 8.53-7.72 17.11-11.63 25.65-4.41-8.32-7.83-17.15-11.88-25.66z" fill="#fff"/>
    <path d="M80.31 9.57c2.05 0 4.1-.01 6.15-.03 1.94 4.49 3.9 8.96 5.79 13.46 1.98-4.46 3.84-8.97 5.83-13.42 1.91-.01 3.831 0 5.741 0-3.93 8.53-7.72 17.11-11.63 25.65-4.41-8.32-7.83-17.15-11.88-25.66z" fill="#1D1E20"/>
    <path d="M105.83 9.59c1.95-.02 3.9-.03 5.85-.04-.07 8.25.21 16.51-.14 24.75-1.9-.08-3.8-.1-5.7-.11-.02-8.2 0-16.4-.01-24.6z" fill="#fff"/>
    <path d="M105.83 9.59c1.95-.02 3.9-.03 5.85-.04-.07 8.25.21 16.51-.14 24.75-1.9-.08-3.8-.1-5.7-.11-.02-8.2 0-16.4-.01-24.6z" fill="#1D1E20"/>
    <path d="M144.18 9.57c5.02-.01 10.05-.01 15.07 0v4.99c-3.15.01-6.3.02-9.44.01 0 1.52.01 3.04.01 4.56h8.05c-.01 1.67-.02 3.33-.02 5-2.68-.01-5.37-.01-8.05-.01.01 1.61.01 3.22.01 4.83 3.18 0 6.36.01 9.55.01-.01 1.74-.02 3.49-.02 5.23-5.05.04-10.09.01-15.14.03-.04-8.22 0-16.43-.02-24.65z" fill="#fff"/>
    <path d="M144.18 9.57c5.02-.01 10.05-.01 15.07 0v4.99c-3.15.01-6.3.02-9.44.01 0 1.52.01 3.04.01 4.56h8.05c-.01 1.67-.02 3.33-.02 5-2.68-.01-5.37-.01-8.05-.01.01 1.61.01 3.22.01 4.83 3.18 0 6.36.01 9.55.01-.01 1.74-.02 3.49-.02 5.23-5.05.04-10.09.01-15.14.03-.04-8.22 0-16.43-.02-24.65z" fill="#1D1E20"/>
    <path d="m56.03 14.61 1.34-.64c-.25.33-.77.99-1.03 1.32-4.41 5.21-8.99 10.28-13.45 15.45-1.59-3.79-3.15-7.6-4.7-11.41 2.24-1.64 4.5-3.24 6.77-4.84.53 1.7 1.05 3.4 1.55 5.11 3.16-1.69 6.31-3.4 9.52-4.99z" fill="#EC0000"/>
</svg>
